<?xml version="1.0" encoding="UTF-8" standalone="no"?><!DOCTYPE svg PUBLIC "-//W3C//DTD SVG 1.1//EN" "http://www.w3.org/Graphics/SVG/1.1/DTD/svg11.dtd"><svg width="100%" height="100%" viewBox="0 0 100 99" version="1.1" xmlns="http://www.w3.org/2000/svg" xmlns:xlink="http://www.w3.org/1999/xlink" xml:space="preserve" style="fill-rule:evenodd;clip-rule:evenodd;stroke-linejoin:round;stroke-miterlimit:1.41421;"><path id="Rectangle.-12" d="M98.38,48.974c6.532,21.736 -24.374,43.059 -48.668,48.668c-24.294,5.609 -55.871,-26.721 -48.668,-48.668c7.202,-21.948 26.053,-44.975 48.668,-48.669c22.615,-3.694 42.136,26.933 48.668,48.669Z" style="fill:url(#_Linear1);"/><path id="Rectangle.-121" d="M88.225,73.933c-5.791,19.839 -39.969,20.796 -61.304,13.031c-21.335,-7.765 -29.416,-48.115 -13.031,-61.304c16.385,-13.189 42.202,-21.425 61.304,-13.031c19.103,8.395 18.822,41.466 13.031,61.304Z" style="fill:url(#_Linear2);"/><path id="Forma-1" d="M44.773,54.791c0,1.733 -1.404,3.138 -3.137,3.138c-1.732,0 -3.137,-1.405 -3.137,-3.138c0,-1.733 1.405,-3.138 3.137,-3.138c1.733,0 3.137,1.405 3.137,3.138Zm12.734,-3.138c-1.733,0 -3.137,1.405 -3.137,3.138c0,1.733 1.404,3.138 3.137,3.138c1.732,0 3.137,-1.405 3.137,-3.138c0,-1.733 -1.405,-3.138 -3.137,-3.138Zm22.614,1.389l0,5.964c0,2.994 -2.427,5.421 -5.42,5.421l-3.933,0c-3.897,10.824 -13.848,17.361 -21.196,17.361c-7.349,0 -17.3,-6.537 -21.197,-17.361l-3.933,0c-2.993,0 -5.419,-2.427 -5.419,-5.421l0,-5.964c0,-2.06 1.149,-3.852 2.841,-4.769c0.057,-8.467 2.524,-15.08 7.343,-19.651c4.78,-4.535 11.632,-6.834 20.365,-6.834c8.732,0 15.584,2.299 20.364,6.834c4.82,4.571 7.287,11.184 7.344,19.651c1.692,0.917 2.841,2.709 2.841,4.769Zm-11.471,1.769c0,-1.395 -0.072,-2.706 -0.177,-3.976c-2.405,-2.201 -6.772,-3.871 -12.283,-4.492c0.724,0.814 1.349,1.885 1.728,3.294c-3.376,-2.66 -10.002,-2.027 -15.013,-7.98c-0.288,-0.332 -0.536,-0.65 -0.751,-0.94c-0.003,-0.003 -0.005,-0.006 -0.008,-0.01l0.001,0.001c-0.892,-1.207 -1.196,-1.924 -1.213,-1.13c-0.147,6.842 -4.995,12.176 -10.378,12.928c-0.035,0.753 -0.062,1.513 -0.062,2.305c0,2.892 0.472,5.528 1.274,7.903c3.024,3.649 8.018,4.679 12.438,4.952c0.821,-1.306 2.662,-2.217 4.806,-2.217c2.907,0 5.263,1.673 5.263,3.737c0,2.064 -2.356,3.737 -5.263,3.737c-2.236,0 -4.141,-0.992 -4.904,-2.388c-3.089,-0.18 -6.485,-0.706 -9.512,-2.136c4.257,6.276 10.855,9.594 14.976,9.594c6.475,0 19.078,-8.182 19.078,-23.182Zm5.366,-7.19c-0.344,-14.775 -8.775,-22.58 -24.444,-22.58c-15.669,0 -24.1,7.805 -24.445,22.58l2.085,0c0.762,-4.98 2.374,-9.076 4.82,-12.225c3.899,-5.018 9.8,-7.562 17.54,-7.562c7.739,0 13.64,2.544 17.539,7.562c2.446,3.149 4.058,7.245 4.82,12.225l2.085,0Z" style="fill:#fff;fill-rule:nonzero;"/><defs><linearGradient id="_Linear1" x1="0" y1="0" x2="1" y2="0" gradientUnits="userSpaceOnUse" gradientTransform="matrix(-67.6594,67.6594,-63.8985,-63.8985,83.2429,17.9998)"><stop offset="0" style="stop-color:#8536d6;stop-opacity:0.2"/><stop offset="1" style="stop-color:#3f36d6;stop-opacity:0.2"/></linearGradient><linearGradient id="_Linear2" x1="0" y1="0" x2="1" y2="0" gradientUnits="userSpaceOnUse" gradientTransform="matrix(-93.5939,19.894,-18.7882,-88.3914,96.2101,41.8825)"><stop offset="0" style="stop-color:#8536d6;stop-opacity:0.7"/><stop offset="1" style="stop-color:#3f36d6;stop-opacity:0.7"/></linearGradient></defs></svg>