<?xml version="1.0" encoding="UTF-8" standalone="no"?><!DOCTYPE svg PUBLIC "-//W3C//DTD SVG 1.1//EN" "http://www.w3.org/Graphics/SVG/1.1/DTD/svg11.dtd"><svg width="100%" height="100%" viewBox="0 0 100 99" version="1.1" xmlns="http://www.w3.org/2000/svg" xmlns:xlink="http://www.w3.org/1999/xlink" xml:space="preserve" style="fill-rule:evenodd;clip-rule:evenodd;stroke-linejoin:round;stroke-miterlimit:1.41421;"><path id="Rectangle.-12" d="M98.38,49.311c6.532,-21.736 -24.374,-43.059 -48.668,-48.668c-24.294,-5.609 -55.871,26.721 -48.668,48.668c7.202,21.948 26.053,44.975 48.668,48.669c22.615,3.694 42.136,-26.933 48.668,-48.669Z" style="fill:url(#_Linear1);"/><path id="Rectangle.-121" d="M88.225,24.351c-5.791,-19.838 -39.969,-20.795 -61.304,-13.03c-21.335,7.765 -29.416,48.115 -13.031,61.304c16.385,13.189 42.202,21.425 61.304,13.031c19.103,-8.395 18.822,-41.466 13.031,-61.305Z" style="fill:url(#_Linear2);"/><path id="Forma-1" d="M64.622,61.196l-0.002,0.101l-0.003,0.1l-0.005,0.099l-0.008,0.098l-0.01,0.098l-0.012,0.096l-0.014,0.095l-0.017,0.094l-0.019,0.094l-0.02,0.092l-0.024,0.091l-0.025,0.091l-0.027,0.089l-0.03,0.089l-0.032,0.087l-0.034,0.087l-0.036,0.085l-0.039,0.085l-0.041,0.083l-0.043,0.083l-0.045,0.082l-0.047,0.08l-0.05,0.08l-0.051,0.079l-0.054,0.078l-0.057,0.076l-0.058,0.076l-0.061,0.075l-0.062,0.074l-0.065,0.073l-0.068,0.072l-0.069,0.071l-0.071,0.07l-0.072,0.067l-0.072,0.065l-0.074,0.062l-0.075,0.061l-0.075,0.058l-0.076,0.056l-0.077,0.054l-0.078,0.052l-0.079,0.05l-0.08,0.047l-0.081,0.045l-0.082,0.043l-0.082,0.041l-0.084,0.038l-0.084,0.037l-0.085,0.034l-0.087,0.032l-0.087,0.03l-0.088,0.027l-0.089,0.025l-0.089,0.024l-0.091,0.021l-0.092,0.018l-0.092,0.017l-0.094,0.014l-0.094,0.013l-0.096,0.01l-0.096,0.007l-0.097,0.006l-0.098,0.003l-0.099,0.002l-2.645,0l0,8.012l-0.002,0.094l-0.003,0.094l-0.005,0.092l-0.007,0.092l-0.009,0.091l-0.012,0.09l-0.013,0.089l-0.016,0.088l-0.017,0.087l-0.02,0.087l-0.021,0.085l-0.024,0.085l-0.026,0.083l-0.028,0.083l-0.03,0.082l-0.032,0.081l-0.034,0.08l-0.036,0.079l-0.038,0.079l-0.041,0.077l-0.042,0.076l-0.044,0.076l-0.047,0.075l-0.048,0.074l-0.051,0.072l-0.053,0.072l-0.055,0.072l-0.056,0.07l-0.059,0.069l-0.061,0.069l-0.063,0.067l-0.065,0.067l-0.067,0.065l-0.067,0.063l-0.069,0.061l-0.069,0.059l-0.07,0.057l-0.071,0.054l-0.072,0.053l-0.073,0.051l-0.074,0.048l-0.074,0.047l-0.076,0.044l-0.076,0.043l-0.078,0.04l-0.078,0.038l-0.079,0.037l-0.08,0.034l-0.081,0.032l-0.082,0.03l-0.082,0.028l-0.084,0.025l-0.084,0.024l-0.086,0.022l-0.086,0.02l-0.087,0.017l-0.088,0.016l-0.089,0.013l-0.09,0.011l-0.091,0.01l-0.091,0.007l-0.093,0.005l-0.093,0.003l-0.094,0.001l-0.095,-0.001l-0.093,-0.003l-0.093,-0.005l-0.091,-0.007l-0.091,-0.01l-0.09,-0.011l-0.089,-0.013l-0.088,-0.016l-0.087,-0.017l-0.086,-0.02l-0.086,-0.022l-0.084,-0.024l-0.084,-0.025l-0.083,-0.028l-0.081,-0.03l-0.081,-0.032l-0.08,-0.034l-0.079,-0.037l-0.078,-0.038l-0.078,-0.04l-0.076,-0.043l-0.076,-0.044l-0.074,-0.047l-0.074,-0.048l-0.073,-0.051l-0.072,-0.053l-0.071,-0.054l-0.07,-0.057l-0.069,-0.059l-0.069,-0.061l-0.067,-0.063l-0.067,-0.065l-0.065,-0.067l-0.063,-0.067l-0.061,-0.069l-0.059,-0.069l-0.056,-0.07l-0.055,-0.072l-0.053,-0.072l-0.05,-0.072l-0.049,-0.074l-0.046,-0.075l-0.045,-0.076l-0.042,-0.076l-0.041,-0.077l-0.038,-0.079l-0.036,-0.079l-0.034,-0.08l-0.032,-0.081l-0.03,-0.082l-0.028,-0.083l-0.026,-0.083l-0.023,-0.085l-0.022,-0.085l-0.02,-0.087l-0.017,-0.087l-0.016,-0.088l-0.013,-0.089l-0.012,-0.09l-0.009,-0.091l-0.007,-0.092l-0.005,-0.092l-0.003,-0.094l-0.001,-0.094l0,-8.012l-4.867,0l0,8.012l-0.001,0.094l-0.003,0.094l-0.006,0.092l-0.007,0.092l-0.009,0.091l-0.011,0.09l-0.014,0.089l-0.015,0.088l-0.018,0.087l-0.02,0.087l-0.021,0.085l-0.024,0.085l-0.026,0.083l-0.028,0.083l-0.03,0.082l-0.032,0.081l-0.034,0.08l-0.036,0.079l-0.038,0.079l-0.04,0.077l-0.043,0.076l-0.044,0.076l-0.047,0.075l-0.048,0.074l-0.051,0.072l-0.053,0.072l-0.054,0.072l-0.057,0.07l-0.059,0.069l-0.061,0.069l-0.063,0.067l-0.065,0.067l-0.067,0.065l-0.067,0.063l-0.069,0.061l-0.069,0.059l-0.07,0.057l-0.071,0.054l-0.072,0.053l-0.073,0.051l-0.074,0.048l-0.074,0.047l-0.076,0.044l-0.076,0.043l-0.077,0.04l-0.079,0.038l-0.079,0.037l-0.08,0.034l-0.081,0.032l-0.082,0.03l-0.082,0.028l-0.084,0.025l-0.084,0.024l-0.086,0.022l-0.086,0.02l-0.087,0.017l-0.088,0.016l-0.089,0.013l-0.09,0.011l-0.091,0.01l-0.091,0.007l-0.093,0.005l-0.093,0.003l-0.094,0.001l-0.092,-0.001l-0.092,-0.003l-0.09,-0.005l-0.09,-0.007l-0.089,-0.01l-0.088,-0.011l-0.087,-0.013l-0.086,-0.016l-0.086,-0.017l-0.085,-0.02l-0.083,-0.022l-0.084,-0.024l-0.082,-0.025l-0.081,-0.028l-0.081,-0.03l-0.08,-0.032l-0.079,-0.034l-0.078,-0.037l-0.077,-0.038l-0.076,-0.04l-0.076,-0.043l-0.075,-0.044l-0.074,-0.047l-0.073,-0.048l-0.072,-0.051l-0.072,-0.053l-0.071,-0.054l-0.069,-0.057l-0.07,-0.059l-0.068,-0.061l-0.067,-0.063l-0.067,-0.065l-0.065,-0.067l-0.063,-0.067l-0.061,-0.069l-0.059,-0.069l-0.056,-0.07l-0.055,-0.072l-0.053,-0.072l-0.05,-0.072l-0.049,-0.074l-0.046,-0.075l-0.045,-0.076l-0.042,-0.076l-0.041,-0.077l-0.038,-0.079l-0.036,-0.079l-0.034,-0.08l-0.032,-0.081l-0.03,-0.082l-0.028,-0.083l-0.026,-0.083l-0.023,-0.085l-0.022,-0.085l-0.02,-0.087l-0.017,-0.087l-0.016,-0.088l-0.013,-0.089l-0.012,-0.09l-0.009,-0.091l-0.007,-0.092l-0.005,-0.092l-0.003,-0.094l-0.001,-0.094l-0.036,-8.013l-2.61,0l-0.102,-0.001l-0.1,-0.004l-0.099,-0.005l-0.098,-0.008l-0.098,-0.01l-0.096,-0.012l-0.095,-0.015l-0.094,-0.016l-0.094,-0.019l-0.092,-0.021l-0.091,-0.023l-0.091,-0.026l-0.089,-0.027l-0.088,-0.03l-0.088,-0.032l-0.086,-0.034l-0.085,-0.037l-0.085,-0.038l-0.083,-0.041l-0.083,-0.043l-0.081,-0.045l-0.081,-0.048l-0.079,-0.049l-0.079,-0.052l-0.078,-0.054l-0.076,-0.056l-0.076,-0.058l-0.075,-0.061l-0.074,-0.063l-0.072,-0.065l-0.072,-0.067l-0.071,-0.069l-0.069,-0.071l-0.068,-0.072l-0.065,-0.073l-0.062,-0.074l-0.061,-0.075l-0.058,-0.076l-0.057,-0.076l-0.054,-0.078l-0.051,-0.079l-0.05,-0.08l-0.047,-0.08l-0.045,-0.082l-0.043,-0.082l-0.041,-0.084l-0.039,-0.085l-0.036,-0.085l-0.034,-0.087l-0.032,-0.087l-0.03,-0.089l-0.027,-0.089l-0.026,-0.09l-0.023,-0.092l-0.021,-0.092l-0.019,-0.093l-0.016,-0.095l-0.014,-0.095l-0.012,-0.096l-0.01,-0.097l-0.008,-0.098l-0.006,-0.099l-0.003,-0.101l-0.001,-0.101l0,-23.506l32.374,0l0,23.507Zm-30.374,-21.507l0,21.495l0.001,0.069l0.002,0.055l0.003,0.054l0.004,0.052l0.005,0.051l0.006,0.049l0.007,0.047l0.008,0.046l0.009,0.045l0.01,0.044l0.011,0.042l0.011,0.042l0.013,0.04l0.013,0.04l0.015,0.039l0.015,0.038l0.016,0.038l0.017,0.038l0.018,0.037l0.019,0.037l0.02,0.036l0.022,0.037l0.023,0.036l0.024,0.037l0.025,0.037l0.027,0.037l0.029,0.037l0.03,0.037l0.032,0.038l0.034,0.038l0.036,0.038l0.037,0.039l0.039,0.038l0.038,0.035l0.038,0.034l0.038,0.032l0.037,0.03l0.037,0.029l0.037,0.027l0.037,0.026l0.036,0.024l0.037,0.022l0.036,0.022l0.037,0.02l0.037,0.019l0.037,0.018l0.037,0.017l0.038,0.016l0.038,0.016l0.039,0.014l0.04,0.013l0.04,0.013l0.042,0.011l0.042,0.011l0.044,0.01l0.045,0.009l0.046,0.008l0.048,0.008l0.049,0.006l0.051,0.005l0.052,0.004l0.054,0.003l0.056,0.002l0.067,0.001l2.598,0l0.208,0.011l0.206,0.032l0.202,0.054l0.195,0.075l0.186,0.094l0.175,0.114l0.163,0.131l0.148,0.147l0.132,0.162l0.114,0.175l0.095,0.186l0.076,0.194l0.054,0.202l0.034,0.206l0.012,0.208l0.036,8.006l0,0.066l0.002,0.049l0.002,0.047l0.004,0.046l0.005,0.044l0.005,0.042l0.006,0.042l0.007,0.039l0.008,0.039l0.009,0.038l0.009,0.036l0.01,0.036l0.011,0.035l0.011,0.034l0.012,0.034l0.013,0.033l0.014,0.032l0.015,0.032l0.015,0.032l0.017,0.032l0.017,0.031l0.019,0.032l0.02,0.032l0.021,0.031l0.022,0.033l0.024,0.032l0.025,0.032l0.026,0.033l0.028,0.033l0.03,0.034l0.032,0.034l0.033,0.034l0.035,0.034l0.035,0.032l0.034,0.031l0.033,0.028l0.034,0.028l0.032,0.025l0.033,0.024l0.032,0.022l0.032,0.022l0.031,0.019l0.032,0.019l0.031,0.017l0.031,0.017l0.031,0.015l0.032,0.015l0.031,0.013l0.032,0.013l0.032,0.012l0.032,0.011l0.033,0.011l0.034,0.009l0.035,0.009l0.035,0.009l0.037,0.007l0.037,0.007l0.039,0.006l0.04,0.005l0.041,0.004l0.042,0.004l0.044,0.002l0.046,0.002l0.047,0l0.05,0l0.048,-0.002l0.047,-0.003l0.046,-0.003l0.043,-0.005l0.043,-0.005l0.041,-0.006l0.04,-0.007l0.038,-0.008l0.038,-0.009l0.036,-0.009l0.036,-0.01l0.035,-0.011l0.033,-0.011l0.034,-0.012l0.033,-0.013l0.032,-0.014l0.032,-0.015l0.032,-0.015l0.031,-0.017l0.032,-0.017l0.031,-0.019l0.032,-0.02l0.032,-0.021l0.032,-0.022l0.032,-0.023l0.033,-0.025l0.032,-0.027l0.033,-0.028l0.034,-0.03l0.034,-0.032l0.034,-0.033l0.033,-0.034l0.032,-0.034l0.03,-0.034l0.028,-0.033l0.027,-0.033l0.025,-0.032l0.023,-0.032l0.023,-0.033l0.021,-0.031l0.019,-0.032l0.019,-0.032l0.017,-0.031l0.017,-0.032l0.015,-0.032l0.015,-0.032l0.014,-0.033l0.013,-0.033l0.012,-0.033l0.012,-0.034l0.01,-0.035l0.01,-0.036l0.01,-0.036l0.008,-0.038l0.008,-0.039l0.007,-0.039l0.006,-0.042l0.006,-0.042l0.004,-0.044l0.004,-0.046l0.002,-0.047l0.002,-0.049l0.001,-0.061l0,-8.001l0.011,-0.209l0.032,-0.207l0.055,-0.202l0.075,-0.196l0.095,-0.186l0.114,-0.176l0.131,-0.163l0.148,-0.148l0.163,-0.131l0.176,-0.114l0.186,-0.095l0.196,-0.075l0.202,-0.055l0.207,-0.032l0.209,-0.011l4.867,0l0.209,0.011l0.206,0.032l0.203,0.055l0.195,0.075l0.187,0.095l0.175,0.114l0.163,0.131l0.148,0.148l0.132,0.163l0.114,0.176l0.095,0.186l0.075,0.196l0.054,0.202l0.033,0.207l0.011,0.209l0,8.001l0,0.061l0.002,0.049l0.002,0.047l0.004,0.046l0.005,0.044l0.005,0.042l0.006,0.042l0.007,0.039l0.008,0.039l0.008,0.038l0.01,0.036l0.01,0.036l0.011,0.035l0.011,0.034l0.012,0.033l0.013,0.033l0.014,0.033l0.015,0.032l0.015,0.032l0.017,0.032l0.017,0.031l0.019,0.032l0.02,0.032l0.021,0.032l0.022,0.032l0.024,0.032l0.025,0.032l0.026,0.033l0.028,0.033l0.03,0.034l0.032,0.034l0.033,0.034l0.034,0.033l0.034,0.032l0.034,0.03l0.033,0.028l0.033,0.027l0.032,0.025l0.032,0.023l0.032,0.023l0.032,0.021l0.032,0.019l0.031,0.019l0.032,0.017l0.031,0.017l0.032,0.015l0.032,0.015l0.033,0.014l0.032,0.013l0.034,0.012l0.033,0.011l0.035,0.011l0.036,0.01l0.036,0.009l0.038,0.009l0.038,0.008l0.04,0.007l0.041,0.006l0.043,0.005l0.043,0.005l0.046,0.003l0.047,0.003l0.048,0.002l0.051,0l0.05,0l0.048,-0.002l0.047,-0.003l0.045,-0.003l0.044,-0.005l0.043,-0.005l0.041,-0.006l0.04,-0.007l0.038,-0.008l0.038,-0.009l0.036,-0.009l0.036,-0.01l0.034,-0.011l0.034,-0.011l0.034,-0.012l0.032,-0.013l0.033,-0.014l0.032,-0.015l0.032,-0.015l0.031,-0.017l0.032,-0.017l0.031,-0.019l0.032,-0.02l0.032,-0.021l0.032,-0.022l0.032,-0.023l0.032,-0.025l0.033,-0.027l0.033,-0.028l0.034,-0.03l0.034,-0.032l0.034,-0.033l0.033,-0.034l0.032,-0.034l0.03,-0.034l0.028,-0.033l0.027,-0.033l0.025,-0.032l0.023,-0.032l0.022,-0.032l0.021,-0.032l0.02,-0.032l0.019,-0.032l0.017,-0.031l0.017,-0.032l0.015,-0.032l0.015,-0.032l0.014,-0.033l0.013,-0.032l0.012,-0.034l0.011,-0.034l0.011,-0.035l0.01,-0.035l0.01,-0.037l0.008,-0.038l0.008,-0.039l0.007,-0.039l0.006,-0.042l0.006,-0.042l0.004,-0.044l0.004,-0.046l0.002,-0.047l0.002,-0.049l0.001,-0.061l0,-8.001l0.01,-0.209l0.033,-0.207l0.054,-0.202l0.075,-0.196l0.095,-0.186l0.114,-0.176l0.132,-0.163l0.148,-0.148l0.163,-0.131l0.176,-0.114l0.186,-0.095l0.195,-0.075l0.203,-0.055l0.206,-0.032l0.21,-0.011l2.632,0l0.064,-0.001l0.053,-0.002l0.052,-0.003l0.049,-0.004l0.048,-0.005l0.047,-0.006l0.045,-0.007l0.044,-0.008l0.043,-0.009l0.041,-0.009l0.041,-0.011l0.04,-0.011l0.039,-0.012l0.038,-0.013l0.038,-0.014l0.037,-0.015l0.037,-0.016l0.037,-0.017l0.036,-0.018l0.036,-0.019l0.037,-0.02l0.036,-0.022l0.036,-0.023l0.037,-0.024l0.037,-0.026l0.037,-0.027l0.038,-0.029l0.037,-0.031l0.039,-0.033l0.038,-0.034l0.039,-0.036l0.038,-0.038l0.038,-0.038l0.036,-0.039l0.033,-0.037l0.032,-0.038l0.031,-0.037l0.028,-0.038l0.027,-0.037l0.026,-0.036l0.024,-0.037l0.023,-0.037l0.021,-0.036l0.021,-0.037l0.019,-0.037l0.018,-0.037l0.017,-0.037l0.016,-0.038l0.015,-0.039l0.014,-0.039l0.014,-0.04l0.012,-0.04l0.012,-0.042l0.011,-0.042l0.009,-0.044l0.009,-0.045l0.008,-0.046l0.008,-0.047l0.006,-0.05l0.005,-0.05l0.004,-0.052l0.003,-0.054l0.002,-0.056l0.001,-0.068l0,-21.496l-28.374,0Zm-6.916,-2.669l0.091,0.003l0.091,0.005l0.089,0.007l0.089,0.009l0.088,0.012l0.087,0.013l0.087,0.016l0.085,0.017l0.085,0.02l0.084,0.022l0.083,0.023l0.083,0.026l0.081,0.028l0.081,0.03l0.079,0.032l0.079,0.034l0.078,0.036l0.078,0.039l0.076,0.04l0.076,0.042l0.075,0.045l0.074,0.046l0.073,0.049l0.072,0.051l0.072,0.052l0.07,0.055l0.07,0.057l0.069,0.059l0.069,0.061l0.067,0.063l0.066,0.065l0.066,0.067l0.063,0.067l0.06,0.068l0.059,0.07l0.057,0.069l0.055,0.071l0.053,0.072l0.05,0.072l0.049,0.073l0.046,0.074l0.045,0.075l0.042,0.076l0.04,0.076l0.039,0.078l0.036,0.078l0.034,0.079l0.032,0.08l0.03,0.08l0.028,0.082l0.025,0.082l0.024,0.083l0.022,0.084l0.02,0.085l0.017,0.086l0.016,0.086l0.013,0.087l0.011,0.088l0.01,0.089l0.007,0.09l0.005,0.091l0.003,0.091l0.001,0.092l0,15.177l-0.001,0.094l-0.003,0.094l-0.005,0.093l-0.007,0.092l-0.009,0.091l-0.011,0.09l-0.014,0.089l-0.015,0.088l-0.017,0.087l-0.019,0.086l-0.022,0.086l-0.023,0.084l-0.026,0.084l-0.027,0.083l-0.029,0.082l-0.032,0.081l-0.034,0.08l-0.035,0.079l-0.038,0.078l-0.039,0.077l-0.042,0.077l-0.044,0.075l-0.045,0.075l-0.048,0.074l-0.05,0.073l-0.052,0.072l-0.054,0.071l-0.055,0.07l-0.058,0.069l-0.06,0.069l-0.062,0.067l-0.064,0.067l-0.066,0.065l-0.066,0.063l-0.068,0.061l-0.068,0.059l-0.069,0.057l-0.07,0.054l-0.071,0.053l-0.072,0.051l-0.073,0.049l-0.074,0.046l-0.075,0.045l-0.076,0.042l-0.077,0.04l-0.077,0.039l-0.079,0.036l-0.079,0.034l-0.081,0.032l-0.081,0.03l-0.082,0.028l-0.083,0.026l-0.084,0.024l-0.085,0.021l-0.086,0.02l-0.087,0.018l-0.088,0.015l-0.089,0.014l-0.089,0.011l-0.091,0.009l-0.091,0.008l-0.093,0.005l-0.093,0.003l-0.095,0.001l-0.094,-0.001l-0.093,-0.003l-0.093,-0.005l-0.091,-0.008l-0.091,-0.009l-0.09,-0.011l-0.089,-0.014l-0.088,-0.015l-0.087,-0.018l-0.086,-0.02l-0.086,-0.021l-0.084,-0.024l-0.084,-0.026l-0.083,-0.028l-0.081,-0.03l-0.081,-0.032l-0.08,-0.034l-0.079,-0.036l-0.079,-0.039l-0.077,-0.04l-0.076,-0.042l-0.076,-0.045l-0.074,-0.046l-0.074,-0.049l-0.073,-0.051l-0.072,-0.053l-0.071,-0.054l-0.07,-0.057l-0.069,-0.059l-0.069,-0.061l-0.067,-0.063l-0.067,-0.065l-0.065,-0.067l-0.063,-0.067l-0.061,-0.069l-0.059,-0.069l-0.056,-0.07l-0.055,-0.071l-0.053,-0.072l-0.051,-0.073l-0.048,-0.074l-0.047,-0.075l-0.044,-0.075l-0.042,-0.077l-0.041,-0.077l-0.038,-0.078l-0.036,-0.079l-0.034,-0.08l-0.032,-0.081l-0.03,-0.082l-0.028,-0.083l-0.026,-0.084l-0.024,-0.084l-0.021,-0.086l-0.02,-0.086l-0.017,-0.087l-0.016,-0.088l-0.013,-0.089l-0.012,-0.09l-0.009,-0.091l-0.007,-0.092l-0.005,-0.093l-0.003,-0.094l-0.002,-0.094l0,-15.177l0.002,-0.092l0.003,-0.091l0.005,-0.091l0.007,-0.09l0.009,-0.089l0.012,-0.088l0.013,-0.087l0.016,-0.086l0.017,-0.086l0.02,-0.085l0.021,-0.084l0.024,-0.083l0.026,-0.082l0.028,-0.082l0.03,-0.08l0.032,-0.08l0.034,-0.079l0.036,-0.078l0.038,-0.078l0.041,-0.076l0.042,-0.076l0.044,-0.075l0.047,-0.074l0.048,-0.073l0.051,-0.072l0.053,-0.072l0.055,-0.071l0.056,-0.069l0.059,-0.07l0.061,-0.068l0.063,-0.067l0.065,-0.067l0.067,-0.065l0.067,-0.063l0.069,-0.061l0.069,-0.059l0.07,-0.057l0.071,-0.055l0.072,-0.052l0.073,-0.051l0.074,-0.049l0.074,-0.046l0.076,-0.045l0.076,-0.042l0.077,-0.04l0.079,-0.039l0.079,-0.036l0.08,-0.034l0.081,-0.032l0.081,-0.03l0.083,-0.028l0.084,-0.026l0.084,-0.023l0.086,-0.022l0.086,-0.02l0.087,-0.017l0.088,-0.016l0.089,-0.013l0.09,-0.012l0.091,-0.009l0.091,-0.007l0.093,-0.005l0.093,-0.003l0.094,-0.001l0.093,0.001Zm42.394,0l0.093,0.003l0.093,0.005l0.092,0.007l0.09,0.009l0.09,0.011l0.089,0.013l0.088,0.016l0.088,0.017l0.086,0.019l0.085,0.022l0.085,0.023l0.083,0.026l0.083,0.027l0.082,0.03l0.081,0.031l0.08,0.034l0.079,0.035l0.078,0.038l0.077,0.04l0.077,0.041l0.075,0.044l0.075,0.046l0.074,0.047l0.073,0.05l0.072,0.052l0.071,0.054l0.07,0.056l0.069,0.058l0.069,0.06l0.067,0.062l0.067,0.064l0.065,0.065l0.063,0.067l0.061,0.067l0.058,0.069l0.057,0.069l0.055,0.07l0.053,0.071l0.05,0.072l0.049,0.073l0.046,0.074l0.045,0.075l0.042,0.076l0.04,0.077l0.039,0.077l0.036,0.079l0.034,0.08l0.032,0.08l0.03,0.081l0.028,0.083l0.026,0.083l0.023,0.084l0.022,0.085l0.02,0.086l0.017,0.087l0.016,0.088l0.013,0.088l0.012,0.09l0.009,0.091l0.007,0.091l0.005,0.093l0.003,0.093l0.001,0.094l0,15.177l-0.001,0.094l-0.003,0.094l-0.005,0.093l-0.007,0.092l-0.009,0.091l-0.012,0.09l-0.013,0.089l-0.016,0.088l-0.017,0.087l-0.02,0.086l-0.022,0.086l-0.023,0.084l-0.026,0.084l-0.028,0.083l-0.03,0.082l-0.032,0.081l-0.034,0.08l-0.036,0.079l-0.039,0.078l-0.04,0.077l-0.042,0.077l-0.045,0.075l-0.046,0.075l-0.049,0.074l-0.05,0.073l-0.053,0.072l-0.055,0.071l-0.057,0.07l-0.058,0.069l-0.061,0.069l-0.063,0.067l-0.065,0.067l-0.067,0.065l-0.067,0.063l-0.069,0.061l-0.069,0.059l-0.07,0.057l-0.071,0.054l-0.072,0.053l-0.073,0.051l-0.074,0.049l-0.075,0.046l-0.075,0.045l-0.077,0.042l-0.077,0.04l-0.078,0.039l-0.079,0.036l-0.08,0.034l-0.081,0.032l-0.082,0.03l-0.083,0.028l-0.083,0.026l-0.085,0.024l-0.085,0.021l-0.086,0.02l-0.088,0.018l-0.088,0.015l-0.089,0.014l-0.09,0.011l-0.09,0.009l-0.092,0.008l-0.093,0.005l-0.093,0.003l-0.094,0.001l-0.092,-0.001l-0.092,-0.003l-0.09,-0.005l-0.09,-0.008l-0.089,-0.009l-0.088,-0.011l-0.087,-0.014l-0.086,-0.015l-0.086,-0.018l-0.084,-0.02l-0.084,-0.021l-0.083,-0.024l-0.083,-0.026l-0.081,-0.028l-0.081,-0.03l-0.08,-0.032l-0.078,-0.034l-0.079,-0.036l-0.077,-0.039l-0.076,-0.04l-0.076,-0.042l-0.075,-0.045l-0.074,-0.046l-0.073,-0.049l-0.072,-0.051l-0.072,-0.053l-0.071,-0.054l-0.069,-0.057l-0.069,-0.059l-0.069,-0.061l-0.067,-0.063l-0.067,-0.065l-0.065,-0.067l-0.063,-0.067l-0.061,-0.069l-0.059,-0.069l-0.056,-0.07l-0.055,-0.071l-0.053,-0.072l-0.05,-0.073l-0.049,-0.074l-0.046,-0.075l-0.045,-0.075l-0.042,-0.077l-0.04,-0.077l-0.039,-0.078l-0.036,-0.079l-0.034,-0.08l-0.032,-0.081l-0.03,-0.082l-0.028,-0.083l-0.026,-0.084l-0.023,-0.084l-0.022,-0.086l-0.02,-0.086l-0.017,-0.087l-0.016,-0.088l-0.013,-0.089l-0.012,-0.09l-0.009,-0.091l-0.007,-0.092l-0.005,-0.093l-0.003,-0.094l-0.001,-0.094l0,-15.177l0.001,-0.094l0.003,-0.093l0.005,-0.093l0.007,-0.091l0.009,-0.091l0.012,-0.09l0.013,-0.088l0.016,-0.088l0.017,-0.087l0.02,-0.086l0.022,-0.085l0.023,-0.084l0.026,-0.083l0.028,-0.083l0.03,-0.081l0.032,-0.08l0.034,-0.08l0.036,-0.079l0.039,-0.077l0.04,-0.077l0.042,-0.076l0.045,-0.075l0.046,-0.074l0.049,-0.073l0.05,-0.072l0.053,-0.071l0.055,-0.07l0.056,-0.069l0.059,-0.069l0.061,-0.067l0.063,-0.067l0.065,-0.065l0.067,-0.064l0.067,-0.062l0.068,-0.06l0.07,-0.058l0.069,-0.056l0.071,-0.054l0.072,-0.052l0.072,-0.05l0.073,-0.047l0.074,-0.046l0.075,-0.044l0.075,-0.041l0.077,-0.04l0.077,-0.038l0.078,-0.035l0.079,-0.034l0.08,-0.031l0.081,-0.03l0.081,-0.027l0.082,-0.026l0.083,-0.023l0.084,-0.022l0.085,-0.019l0.086,-0.017l0.086,-0.016l0.087,-0.013l0.088,-0.011l0.089,-0.009l0.09,-0.007l0.09,-0.005l0.092,-0.003l0.092,-0.001l0.094,0.001Zm-42.537,1.999l-0.048,0.002l-0.047,0.002l-0.046,0.004l-0.044,0.005l-0.042,0.005l-0.041,0.006l-0.04,0.007l-0.038,0.008l-0.038,0.008l-0.036,0.01l-0.036,0.01l-0.034,0.01l-0.034,0.012l-0.034,0.012l-0.033,0.013l-0.032,0.014l-0.032,0.014l-0.032,0.016l-0.031,0.016l-0.032,0.018l-0.031,0.019l-0.032,0.019l-0.032,0.021l-0.032,0.022l-0.032,0.024l-0.032,0.025l-0.033,0.027l-0.033,0.028l-0.034,0.03l-0.034,0.031l-0.034,0.034l-0.034,0.035l-0.032,0.034l-0.031,0.034l-0.028,0.034l-0.027,0.033l-0.026,0.033l-0.024,0.033l-0.022,0.032l-0.022,0.032l-0.019,0.032l-0.019,0.031l-0.018,0.031l-0.016,0.032l-0.015,0.031l-0.015,0.031l-0.014,0.032l-0.012,0.031l-0.012,0.033l-0.011,0.032l-0.011,0.033l-0.009,0.034l-0.009,0.035l-0.009,0.036l-0.007,0.036l-0.007,0.038l-0.006,0.038l-0.005,0.04l-0.004,0.042l-0.004,0.042l-0.002,0.045l-0.002,0.045l-0.001,0.059l0,15.154l0.001,0.061l0.002,0.049l0.002,0.048l0.004,0.045l0.005,0.045l0.005,0.042l0.006,0.042l0.007,0.04l0.008,0.038l0.008,0.038l0.01,0.036l0.01,0.036l0.01,0.035l0.012,0.034l0.012,0.033l0.013,0.033l0.014,0.032l0.015,0.032l0.015,0.032l0.017,0.032l0.017,0.031l0.019,0.032l0.019,0.031l0.021,0.032l0.022,0.032l0.024,0.032l0.025,0.033l0.027,0.033l0.028,0.033l0.03,0.034l0.032,0.034l0.033,0.034l0.034,0.033l0.034,0.032l0.034,0.03l0.033,0.028l0.033,0.027l0.032,0.025l0.033,0.024l0.032,0.022l0.031,0.021l0.032,0.02l0.032,0.018l0.031,0.018l0.032,0.016l0.032,0.016l0.032,0.014l0.032,0.014l0.033,0.013l0.033,0.013l0.034,0.011l0.035,0.011l0.035,0.01l0.037,0.009l0.037,0.009l0.039,0.007l0.039,0.007l0.041,0.007l0.043,0.005l0.044,0.004l0.045,0.004l0.047,0.003l0.048,0.001l0.05,0.001l0.05,-0.001l0.049,-0.001l0.047,-0.003l0.045,-0.004l0.043,-0.004l0.042,-0.005l0.041,-0.007l0.039,-0.006l0.038,-0.008l0.037,-0.009l0.036,-0.009l0.034,-0.01l0.034,-0.01l0.033,-0.011l0.033,-0.012l0.031,-0.013l0.032,-0.013l0.031,-0.015l0.03,-0.015l0.031,-0.016l0.03,-0.017l0.031,-0.018l0.03,-0.019l0.031,-0.02l0.03,-0.022l0.031,-0.023l0.032,-0.025l0.031,-0.025l0.032,-0.028l0.032,-0.029l0.033,-0.031l0.032,-0.032l0.033,-0.034l0.031,-0.034l0.029,-0.033l0.028,-0.033l0.026,-0.033l0.024,-0.033l0.024,-0.032l0.021,-0.032l0.021,-0.032l0.02,-0.032l0.018,-0.031l0.017,-0.032l0.017,-0.032l0.015,-0.032l0.015,-0.033l0.014,-0.033l0.012,-0.033l0.013,-0.034l0.011,-0.035l0.011,-0.035l0.01,-0.036l0.009,-0.037l0.009,-0.039l0.008,-0.039l0.007,-0.041l0.006,-0.042l0.005,-0.043l0.005,-0.045l0.003,-0.046l0.003,-0.048l0.002,-0.05l0,-0.062l0,-15.154l0,-0.059l-0.002,-0.046l-0.002,-0.044l-0.004,-0.042l-0.004,-0.042l-0.005,-0.04l-0.006,-0.038l-0.007,-0.038l-0.008,-0.036l-0.008,-0.036l-0.009,-0.035l-0.009,-0.034l-0.011,-0.033l-0.011,-0.032l-0.012,-0.033l-0.013,-0.031l-0.013,-0.032l-0.015,-0.031l-0.015,-0.032l-0.017,-0.031l-0.017,-0.031l-0.019,-0.031l-0.02,-0.032l-0.021,-0.032l-0.022,-0.032l-0.024,-0.033l-0.026,-0.033l-0.027,-0.033l-0.029,-0.034l-0.03,-0.034l-0.033,-0.034l-0.033,-0.035l-0.035,-0.034l-0.035,-0.033l-0.034,-0.03l-0.033,-0.029l-0.034,-0.027l-0.032,-0.025l-0.033,-0.024l-0.032,-0.023l-0.032,-0.021l-0.031,-0.02l-0.032,-0.018l-0.031,-0.018l-0.031,-0.016l-0.031,-0.016l-0.032,-0.014l-0.031,-0.014l-0.032,-0.012l-0.032,-0.012l-0.032,-0.011l-0.034,-0.011l-0.033,-0.01l-0.035,-0.008l-0.036,-0.009l-0.036,-0.007l-0.037,-0.007l-0.039,-0.006l-0.04,-0.005l-0.041,-0.004l-0.043,-0.004l-0.044,-0.002l-0.046,-0.002l-0.047,0l-0.05,0Zm42.395,0l-0.046,0.002l-0.045,0.002l-0.043,0.004l-0.042,0.004l-0.041,0.005l-0.039,0.006l-0.038,0.007l-0.037,0.007l-0.036,0.009l-0.036,0.009l-0.034,0.009l-0.034,0.011l-0.033,0.011l-0.032,0.012l-0.033,0.013l-0.032,0.013l-0.031,0.015l-0.032,0.015l-0.031,0.016l-0.032,0.018l-0.031,0.018l-0.032,0.02l-0.032,0.021l-0.032,0.022l-0.033,0.023l-0.033,0.025l-0.033,0.027l-0.033,0.028l-0.034,0.03l-0.035,0.031l-0.033,0.033l-0.033,0.032l-0.03,0.033l-0.03,0.033l-0.027,0.031l-0.026,0.032l-0.024,0.031l-0.023,0.031l-0.022,0.031l-0.02,0.031l-0.019,0.03l-0.018,0.03l-0.018,0.031l-0.016,0.031l-0.015,0.03l-0.014,0.031l-0.014,0.032l-0.012,0.032l-0.012,0.032l-0.011,0.033l-0.011,0.034l-0.01,0.035l-0.009,0.036l-0.008,0.037l-0.008,0.038l-0.007,0.039l-0.006,0.041l-0.005,0.042l-0.005,0.044l-0.004,0.045l-0.002,0.047l-0.002,0.048l0,0.061l0,15.155l0,0.061l0.002,0.049l0.003,0.048l0.003,0.045l0.005,0.044l0.005,0.043l0.006,0.042l0.007,0.039l0.008,0.039l0.009,0.038l0.009,0.036l0.01,0.036l0.011,0.035l0.011,0.034l0.012,0.033l0.013,0.033l0.014,0.032l0.015,0.032l0.015,0.032l0.017,0.032l0.017,0.031l0.019,0.032l0.019,0.031l0.021,0.032l0.023,0.032l0.023,0.032l0.025,0.033l0.027,0.033l0.028,0.033l0.03,0.034l0.032,0.034l0.033,0.034l0.035,0.034l0.035,0.032l0.034,0.031l0.033,0.029l0.034,0.027l0.032,0.025l0.033,0.024l0.032,0.023l0.032,0.021l0.032,0.02l0.031,0.018l0.031,0.018l0.032,0.016l0.031,0.016l0.031,0.014l0.031,0.014l0.032,0.013l0.032,0.012l0.033,0.011l0.033,0.01l0.034,0.01l0.034,0.009l0.036,0.008l0.036,0.008l0.038,0.006l0.038,0.006l0.04,0.005l0.041,0.005l0.043,0.003l0.043,0.003l0.046,0.001l0.047,0.001l0.05,-0.001l0.048,-0.001l0.047,-0.003l0.046,-0.004l0.044,-0.004l0.042,-0.005l0.041,-0.007l0.04,-0.007l0.038,-0.008l0.038,-0.008l0.036,-0.009l0.036,-0.01l0.034,-0.011l0.034,-0.012l0.034,-0.012l0.033,-0.013l0.032,-0.014l0.032,-0.014l0.032,-0.016l0.032,-0.016l0.031,-0.018l0.032,-0.019l0.032,-0.019l0.031,-0.021l0.032,-0.022l0.033,-0.024l0.032,-0.025l0.033,-0.027l0.033,-0.028l0.034,-0.03l0.034,-0.032l0.034,-0.033l0.033,-0.034l0.032,-0.034l0.03,-0.034l0.028,-0.033l0.027,-0.033l0.025,-0.033l0.023,-0.032l0.023,-0.032l0.021,-0.032l0.019,-0.031l0.019,-0.032l0.017,-0.031l0.017,-0.032l0.015,-0.032l0.015,-0.032l0.014,-0.032l0.013,-0.033l0.012,-0.033l0.011,-0.034l0.011,-0.035l0.01,-0.036l0.009,-0.036l0.009,-0.038l0.008,-0.039l0.007,-0.04l0.006,-0.041l0.005,-0.042l0.005,-0.045l0.003,-0.045l0.003,-0.048l0.002,-0.049l0,-0.061l0,-15.155l0,-0.061l-0.002,-0.048l-0.003,-0.047l-0.003,-0.045l-0.005,-0.044l-0.005,-0.042l-0.006,-0.041l-0.007,-0.039l-0.008,-0.038l-0.008,-0.037l-0.009,-0.036l-0.01,-0.035l-0.011,-0.034l-0.011,-0.033l-0.012,-0.032l-0.013,-0.032l-0.013,-0.032l-0.014,-0.031l-0.015,-0.031l-0.017,-0.03l-0.017,-0.031l-0.017,-0.03l-0.02,-0.03l-0.02,-0.031l-0.022,-0.031l-0.022,-0.031l-0.025,-0.031l-0.026,-0.032l-0.027,-0.031l-0.029,-0.033l-0.031,-0.032l-0.033,-0.033l-0.033,-0.032l-0.033,-0.031l-0.034,-0.029l-0.033,-0.028l-0.032,-0.026l-0.033,-0.024l-0.032,-0.024l-0.032,-0.022l-0.032,-0.02l-0.032,-0.02l-0.032,-0.018l-0.032,-0.017l-0.032,-0.017l-0.032,-0.015l-0.032,-0.015l-0.033,-0.014l-0.034,-0.013l-0.034,-0.012l-0.034,-0.011l-0.035,-0.011l-0.037,-0.01l-0.037,-0.01l-0.038,-0.008l-0.039,-0.008l-0.041,-0.007l-0.042,-0.006l-0.043,-0.005l-0.044,-0.005l-0.046,-0.004l-0.048,-0.002l-0.049,-0.002l-0.051,0l-0.048,0Zm-11.08,-21.024l0.024,0.001l0.026,0.003l0.025,0.004l0.026,0.005l0.027,0.007l0.026,0.007l0.028,0.009l0.027,0.011l0.028,0.011l0.029,0.013l0.026,0.015l0.024,0.017l0.023,0.016l0.022,0.017l0.021,0.017l0.019,0.018l0.018,0.018l0.017,0.019l0.015,0.019l0.014,0.019l0.013,0.02l0.011,0.02l0.01,0.021l0.009,0.021l0.007,0.021l0.006,0.022l0.005,0.022l0.004,0.023l0.002,0.023l0.001,0.023l-0.001,0.024l-0.001,0.025l-0.003,0.024l-0.005,0.026l-0.005,0.025l-0.007,0.026l-0.008,0.026l-0.01,0.027l-0.011,0.028l-0.012,0.027l-0.014,0.028l-0.014,0.029l-2.504,4.622l0.117,0.062l0.117,0.061l0.116,0.063l0.115,0.063l0.115,0.065l0.114,0.064l0.113,0.066l0.112,0.066l0.112,0.067l0.111,0.068l0.11,0.069l0.109,0.069l0.109,0.07l0.108,0.071l0.107,0.072l0.107,0.072l0.105,0.073l0.105,0.074l0.104,0.074l0.104,0.076l0.103,0.076l0.102,0.076l0.101,0.078l0.1,0.078l0.1,0.079l0.099,0.08l0.098,0.081l0.098,0.081l0.097,0.082l0.096,0.083l0.095,0.083l0.095,0.085l0.094,0.085l0.093,0.085l0.092,0.087l0.092,0.087l0.091,0.088l0.09,0.089l0.089,0.089l0.089,0.091l0.088,0.091l0.087,0.091l0.086,0.093l0.086,0.093l0.085,0.094l0.084,0.095l0.084,0.095l0.083,0.097l0.082,0.097l0.081,0.097l0.08,0.099l0.08,0.099l0.079,0.1l0.079,0.101l0.077,0.101l0.077,0.103l0.076,0.103l0.075,0.103l0.075,0.105l0.074,0.105l0.073,0.106l0.072,0.107l0.072,0.107l0.071,0.109l0.07,0.109l0.069,0.109l0.067,0.109l0.067,0.11l0.066,0.11l0.064,0.11l0.063,0.111l0.063,0.111l0.061,0.111l0.06,0.112l0.059,0.112l0.058,0.112l0.056,0.113l0.056,0.113l0.055,0.113l0.053,0.113l0.052,0.114l0.052,0.114l0.05,0.115l0.049,0.115l0.048,0.115l0.046,0.115l0.046,0.116l0.045,0.116l0.043,0.117l0.043,0.116l0.041,0.117l0.04,0.118l0.039,0.117l0.038,0.118l0.037,0.119l0.036,0.118l0.035,0.119l0.034,0.12l0.032,0.119l0.032,0.12l0.03,0.12l0.029,0.121l0.028,0.121l0.027,0.121l0.026,0.122l0.025,0.122l0.024,0.122l0.022,0.122l0.022,0.123l0.02,0.123l0.019,0.124l0.019,0.124l0.017,0.124l0.016,0.124l0.015,0.125l0.014,0.125l0.012,0.126l0.012,0.125l0.01,0.127l0.01,0.126l0.008,0.127l0.007,0.127l0.006,0.127l0.005,0.128l0.004,0.128l0.003,0.129l0.002,0.128l0,0.129l-32.621,0l0,-0.129l0.002,-0.128l0.002,-0.128l0.004,-0.128l0.005,-0.128l0.006,-0.127l0.008,-0.127l0.008,-0.127l0.009,-0.126l0.011,-0.126l0.011,-0.126l0.013,-0.125l0.014,-0.125l0.015,-0.125l0.016,-0.125l0.017,-0.124l0.018,-0.124l0.019,-0.123l0.021,-0.123l0.021,-0.123l0.023,-0.122l0.023,-0.123l0.025,-0.122l0.026,-0.121l0.027,-0.121l0.028,-0.121l0.029,-0.121l0.031,-0.12l0.031,-0.12l0.033,-0.12l0.033,-0.119l0.035,-0.119l0.036,-0.119l0.037,-0.118l0.038,-0.118l0.039,-0.118l0.04,-0.117l0.041,-0.117l0.043,-0.117l0.043,-0.117l0.045,-0.116l0.046,-0.115l0.047,-0.116l0.048,-0.115l0.049,-0.115l0.05,-0.115l0.051,-0.114l0.052,-0.114l0.054,-0.113l0.054,-0.114l0.056,-0.113l0.057,-0.112l0.058,-0.113l0.059,-0.112l0.06,-0.111l0.061,-0.112l0.062,-0.111l0.064,-0.11l0.064,-0.111l0.066,-0.11l0.066,-0.11l0.068,-0.109l0.069,-0.109l0.07,-0.109l0.071,-0.109l0.072,-0.107l0.072,-0.107l0.073,-0.106l0.074,-0.105l0.075,-0.105l0.075,-0.103l0.076,-0.103l0.077,-0.103l0.078,-0.101l0.079,-0.101l0.079,-0.1l0.08,-0.099l0.081,-0.099l0.081,-0.097l0.082,-0.097l0.084,-0.097l0.083,-0.095l0.085,-0.095l0.085,-0.094l0.086,-0.093l0.087,-0.093l0.088,-0.091l0.088,-0.091l0.089,-0.091l0.09,-0.089l0.091,-0.089l0.091,-0.088l0.092,-0.087l0.093,-0.087l0.094,-0.085l0.094,-0.085l0.095,-0.085l0.096,-0.083l0.097,-0.083l0.097,-0.082l0.098,-0.081l0.099,-0.081l0.1,-0.08l0.101,-0.079l0.101,-0.078l0.102,-0.078l0.103,-0.076l0.103,-0.076l0.104,-0.076l0.105,-0.074l0.106,-0.074l0.107,-0.073l0.107,-0.072l0.108,-0.072l0.109,-0.071l0.109,-0.07l0.111,-0.069l0.111,-0.069l0.111,-0.068l0.113,-0.067l0.113,-0.066l0.115,-0.066l0.114,-0.064l0.116,-0.065l0.116,-0.063l0.117,-0.063l0.118,-0.061l0.119,-0.062l-2.504,-4.622l-0.015,-0.029l-0.013,-0.028l-0.013,-0.027l-0.01,-0.028l-0.01,-0.026l-0.008,-0.027l-0.007,-0.026l-0.006,-0.025l-0.004,-0.026l-0.003,-0.024l-0.002,-0.025l0,-0.023l0.001,-0.024l0.002,-0.023l0.003,-0.023l0.005,-0.022l0.006,-0.022l0.008,-0.021l0.008,-0.021l0.011,-0.021l0.011,-0.02l0.013,-0.02l0.014,-0.019l0.015,-0.019l0.017,-0.019l0.018,-0.018l0.019,-0.017l0.02,-0.018l0.022,-0.017l0.024,-0.016l0.024,-0.017l0.026,-0.015l0.028,-0.013l0.028,-0.011l0.028,-0.01l0.027,-0.009l0.027,-0.008l0.026,-0.006l0.026,-0.006l0.026,-0.004l0.025,-0.002l0.025,-0.002l0.024,0l0.024,0.001l0.023,0.002l0.023,0.004l0.023,0.005l0.022,0.006l0.022,0.007l0.021,0.008l0.021,0.01l0.021,0.011l0.02,0.012l0.02,0.014l0.019,0.014l0.019,0.016l0.019,0.018l0.018,0.018l0.018,0.02l0.017,0.02l0.017,0.022l0.016,0.024l0.016,0.024l0.016,0.026l2.539,4.66l0.21,-0.091l0.211,-0.089l0.211,-0.085l0.212,-0.083l0.213,-0.079l0.213,-0.077l0.215,-0.074l0.215,-0.071l0.216,-0.068l0.216,-0.065l0.218,-0.063l0.218,-0.059l0.219,-0.056l0.219,-0.054l0.221,-0.051l0.221,-0.048l0.222,-0.045l0.222,-0.042l0.224,-0.039l0.224,-0.036l0.225,-0.033l0.226,-0.031l0.226,-0.027l0.227,-0.025l0.228,-0.022l0.229,-0.018l0.23,-0.016l0.23,-0.013l0.231,-0.011l0.232,-0.007l0.232,-0.004l0.233,-0.002l0.234,0.002l0.232,0.004l0.232,0.007l0.231,0.011l0.23,0.013l0.229,0.016l0.229,0.018l0.228,0.022l0.227,0.025l0.227,0.027l0.225,0.031l0.225,0.033l0.224,0.036l0.224,0.039l0.223,0.042l0.221,0.045l0.222,0.048l0.22,0.051l0.22,0.054l0.219,0.056l0.218,0.059l0.217,0.063l0.217,0.065l0.216,0.068l0.215,0.071l0.214,0.074l0.214,0.077l0.213,0.079l0.212,0.083l0.211,0.085l0.211,0.089l0.209,0.091l2.54,-4.66l0.015,-0.026l0.016,-0.024l0.017,-0.024l0.017,-0.022l0.017,-0.021l0.018,-0.019l0.018,-0.019l0.018,-0.017l0.019,-0.016l0.019,-0.014l0.02,-0.014l0.02,-0.012l0.021,-0.011l0.021,-0.01l0.021,-0.008l0.022,-0.007l0.022,-0.007l0.023,-0.004l0.023,-0.004l0.023,-0.002l0.024,-0.001l0.025,0Zm-10.276,5.46l-0.207,0.004l-0.207,0.006l-0.206,0.009l-0.205,0.012l-0.203,0.014l-0.204,0.017l-0.202,0.019l-0.201,0.022l-0.201,0.024l-0.2,0.027l-0.199,0.03l-0.198,0.032l-0.198,0.034l-0.196,0.037l-0.196,0.04l-0.196,0.042l-0.194,0.045l-0.194,0.047l-0.194,0.05l-0.192,0.053l-0.192,0.055l-0.191,0.057l-0.191,0.06l-0.19,0.063l-0.189,0.065l-0.189,0.068l-0.189,0.071l-0.187,0.073l-0.187,0.076l-0.187,0.078l-0.198,0.086l-0.198,0.074l-0.198,0.051l-0.048,0.044l-0.171,0.125l-0.183,0.107l-0.112,0.058l-0.104,0.055l-0.104,0.055l-0.103,0.056l-0.102,0.057l-0.101,0.057l-0.101,0.058l-0.1,0.058l-0.099,0.059l-0.098,0.06l-0.098,0.06l-0.097,0.061l-0.096,0.062l-0.095,0.062l-0.095,0.063l-0.094,0.063l-0.093,0.064l-0.092,0.064l-0.092,0.065l-0.091,0.066l-0.091,0.067l-0.089,0.067l-0.089,0.067l-0.088,0.068l-0.088,0.069l-0.087,0.07l-0.086,0.07l-0.085,0.07l-0.085,0.072l-0.084,0.072l-0.083,0.072l-0.083,0.073l-0.082,0.074l-0.081,0.075l-0.081,0.075l-0.08,0.075l-0.079,0.077l-0.079,0.077l-0.077,0.077l-0.078,0.079l-0.076,0.079l-0.076,0.079l-0.076,0.081l-0.074,0.08l-0.074,0.082l-0.074,0.082l-0.073,0.083l-0.072,0.084l-0.071,0.084l-0.071,0.085l-0.07,0.086l-0.07,0.086l-0.069,0.087l-0.068,0.088l-0.068,0.088l-0.067,0.089l-0.066,0.09l-0.066,0.09l-0.065,0.091l-0.065,0.092l-0.064,0.093l-0.063,0.093l-0.063,0.094l-0.061,0.094l-0.061,0.095l-0.06,0.095l-0.059,0.095l-0.057,0.095l-0.057,0.095l-0.056,0.095l-0.055,0.096l-0.053,0.096l-0.053,0.096l-0.052,0.096l-0.05,0.096l-0.05,0.097l-0.049,0.096l-0.048,0.097l-0.046,0.097l-0.046,0.098l-0.045,0.097l-0.044,0.098l-0.043,0.098l-0.041,0.098l-0.041,0.098l-0.04,0.099l-0.039,0.098l-0.038,0.099l-0.038,0.1l-0.036,0.099l-0.035,0.1l-0.034,0.1l-0.033,0.1l-0.033,0.1l-0.031,0.101l-0.031,0.101l-0.029,0.101l-0.029,0.102l-0.027,0.102l-0.027,0.102l-0.026,0.102l-0.025,0.103l-0.024,0.103l-0.023,0.103l-0.022,0.103l-0.021,0.104l-0.02,0.104l-0.02,0.105l-0.018,0.105l-0.01,0.058l28.3,0l-0.01,-0.06l-0.018,-0.105l-0.019,-0.104l-0.021,-0.104l-0.021,-0.104l-0.022,-0.104l-0.023,-0.103l-0.024,-0.103l-0.025,-0.103l-0.026,-0.102l-0.026,-0.102l-0.028,-0.102l-0.029,-0.101l-0.029,-0.102l-0.031,-0.1l-0.031,-0.101l-0.032,-0.1l-0.034,-0.101l-0.034,-0.1l-0.035,-0.099l-0.036,-0.099l-0.037,-0.1l-0.038,-0.099l-0.039,-0.098l-0.04,-0.099l-0.041,-0.098l-0.042,-0.098l-0.043,-0.098l-0.044,-0.098l-0.044,-0.097l-0.046,-0.097l-0.047,-0.097l-0.048,-0.097l-0.048,-0.097l-0.05,-0.096l-0.051,-0.096l-0.051,-0.097l-0.053,-0.095l-0.054,-0.096l-0.055,-0.096l-0.055,-0.095l-0.057,-0.095l-0.058,-0.095l-0.058,-0.095l-0.06,-0.095l-0.061,-0.095l-0.062,-0.094l-0.063,-0.095l-0.063,-0.093l-0.064,-0.093l-0.065,-0.092l-0.065,-0.091l-0.066,-0.091l-0.066,-0.09l-0.067,-0.089l-0.068,-0.088l-0.068,-0.088l-0.069,-0.087l-0.069,-0.087l-0.07,-0.085l-0.071,-0.085l-0.071,-0.085l-0.072,-0.084l-0.073,-0.083l-0.073,-0.082l-0.074,-0.082l-0.074,-0.081l-0.076,-0.08l-0.075,-0.08l-0.077,-0.079l-0.077,-0.078l-0.077,-0.078l-0.079,-0.077l-0.078,-0.076l-0.08,-0.076l-0.08,-0.075l-0.081,-0.075l-0.082,-0.074l-0.082,-0.073l-0.083,-0.072l-0.083,-0.072l-0.085,-0.072l-0.084,-0.071l-0.086,-0.07l-0.086,-0.069l-0.087,-0.069l-0.088,-0.068l-0.088,-0.068l-0.089,-0.067l-0.089,-0.066l-0.091,-0.066l-0.091,-0.065l-0.092,-0.064l-0.092,-0.064l-0.093,-0.064l-0.094,-0.062l-0.095,-0.062l-0.095,-0.062l-0.096,-0.061l-0.097,-0.06l-0.097,-0.059l-0.098,-0.059l-0.099,-0.059l-0.1,-0.058l-0.1,-0.057l-0.101,-0.056l-0.102,-0.056l-0.103,-0.056l-0.103,-0.054l-0.111,-0.058l-0.182,-0.108l-0.17,-0.126l-0.043,-0.039l-0.198,-0.051l-0.198,-0.074l-0.198,-0.086l-0.187,-0.078l-0.187,-0.076l-0.188,-0.073l-0.188,-0.071l-0.189,-0.068l-0.189,-0.065l-0.191,-0.063l-0.19,-0.06l-0.192,-0.057l-0.192,-0.055l-0.192,-0.053l-0.193,-0.05l-0.194,-0.047l-0.195,-0.045l-0.195,-0.042l-0.196,-0.04l-0.197,-0.037l-0.198,-0.034l-0.198,-0.032l-0.199,-0.03l-0.2,-0.027l-0.2,-0.024l-0.202,-0.022l-0.202,-0.019l-0.203,-0.017l-0.204,-0.014l-0.205,-0.012l-0.205,-0.009l-0.207,-0.006l-0.207,-0.004l-0.209,-0.002l-0.208,0.002Zm6.826,3.221l0.081,0.003l0.082,0.005l0.082,0.007l0.082,0.008l0.082,0.011l0.082,0.013l0.083,0.015l0.082,0.017l0.083,0.019l0.082,0.022l0.082,0.024l0.081,0.026l0.081,0.028l0.08,0.031l0.079,0.032l0.078,0.035l0.078,0.037l0.076,0.038l0.075,0.041l0.074,0.042l0.072,0.045l0.071,0.046l0.07,0.047l0.068,0.049l0.066,0.051l0.065,0.052l0.063,0.053l0.061,0.054l0.06,0.056l0.058,0.056l0.058,0.06l0.056,0.06l0.053,0.059l0.051,0.06l0.051,0.062l0.049,0.064l0.048,0.064l0.047,0.067l0.045,0.067l0.044,0.069l0.042,0.07l0.04,0.072l0.039,0.072l0.037,0.073l0.036,0.075l0.033,0.076l0.032,0.077l0.03,0.077l0.027,0.077l0.026,0.079l0.024,0.079l0.022,0.079l0.02,0.08l0.017,0.08l0.016,0.08l0.014,0.08l0.012,0.08l0.01,0.08l0.008,0.079l0.006,0.08l0.004,0.079l0.003,0.079l0,0.078l0,0.078l-0.003,0.079l-0.004,0.079l-0.006,0.079l-0.008,0.08l-0.01,0.08l-0.012,0.08l-0.014,0.08l-0.016,0.08l-0.017,0.08l-0.02,0.079l-0.022,0.079l-0.024,0.08l-0.025,0.078l-0.028,0.078l-0.03,0.077l-0.032,0.077l-0.033,0.076l-0.036,0.075l-0.037,0.073l-0.039,0.073l-0.041,0.072l-0.042,0.07l-0.044,0.069l-0.045,0.068l-0.047,0.066l-0.048,0.065l-0.05,0.064l-0.051,0.062l-0.051,0.06l-0.053,0.06l-0.054,0.056l-0.055,0.057l-0.058,0.057l-0.06,0.056l-0.062,0.055l-0.063,0.053l-0.065,0.052l-0.066,0.051l-0.068,0.049l-0.07,0.048l-0.071,0.046l-0.073,0.045l-0.073,0.043l-0.076,0.04l-0.076,0.039l-0.078,0.037l-0.078,0.035l-0.079,0.033l-0.081,0.03l-0.08,0.028l-0.082,0.026l-0.082,0.024l-0.082,0.022l-0.082,0.019l-0.083,0.018l-0.083,0.015l-0.082,0.013l-0.082,0.01l-0.082,0.009l-0.082,0.007l-0.082,0.004l-0.081,0.003l-0.08,0.001l-0.081,-0.001l-0.081,-0.003l-0.081,-0.004l-0.081,-0.007l-0.082,-0.008l-0.082,-0.011l-0.082,-0.013l-0.082,-0.015l-0.082,-0.017l-0.082,-0.019l-0.082,-0.021l-0.081,-0.023l-0.081,-0.026l-0.08,-0.027l-0.08,-0.03l-0.078,-0.032l-0.078,-0.033l-0.077,-0.036l-0.076,-0.038l-0.074,-0.04l-0.074,-0.041l-0.072,-0.043l-0.07,-0.045l-0.07,-0.046l-0.068,-0.048l-0.066,-0.049l-0.065,-0.05l-0.063,-0.052l-0.062,-0.053l-0.06,-0.054l-0.059,-0.055l-0.054,-0.054l-0.053,-0.054l-0.055,-0.059l-0.054,-0.06l-0.053,-0.061l-0.051,-0.063l-0.05,-0.065l-0.049,-0.066l-0.048,-0.068l-0.046,-0.069l-0.044,-0.071l-0.044,-0.072l-0.041,-0.073l-0.039,-0.075l-0.038,-0.075l-0.035,-0.077l-0.034,-0.078l-0.032,-0.078l-0.03,-0.08l-0.027,-0.08l-0.025,-0.081l-0.024,-0.081l-0.021,-0.082l-0.019,-0.081l-0.017,-0.082l-0.015,-0.082l-0.012,-0.082l-0.011,-0.082l-0.009,-0.082l-0.006,-0.082l-0.005,-0.081l-0.003,-0.081l-0.001,-0.08l0.001,-0.081l0.003,-0.081l0.005,-0.081l0.006,-0.081l0.009,-0.082l0.011,-0.082l0.012,-0.082l0.015,-0.082l0.017,-0.082l0.019,-0.082l0.021,-0.081l0.024,-0.082l0.025,-0.08l0.027,-0.08l0.03,-0.079l0.032,-0.079l0.033,-0.077l0.036,-0.077l0.038,-0.076l0.039,-0.074l0.041,-0.073l0.043,-0.072l0.044,-0.071l0.046,-0.069l0.048,-0.068l0.049,-0.066l0.05,-0.064l0.051,-0.063l0.053,-0.062l0.053,-0.06l0.055,-0.058l0.056,-0.057l0.057,-0.056l0.058,-0.055l0.06,-0.054l0.062,-0.052l0.063,-0.052l0.065,-0.05l0.066,-0.049l0.068,-0.048l0.069,-0.046l0.07,-0.044l0.072,-0.043l0.074,-0.041l0.074,-0.04l0.076,-0.037l0.077,-0.036l0.077,-0.033l0.079,-0.032l0.079,-0.03l0.08,-0.027l0.081,-0.026l0.081,-0.023l0.081,-0.021l0.082,-0.019l0.082,-0.017l0.082,-0.015l0.082,-0.012l0.082,-0.011l0.082,-0.009l0.081,-0.006l0.081,-0.005l0.081,-0.003l0.081,0l0.08,0Zm-13.076,0l0.081,0.003l0.081,0.005l0.082,0.007l0.082,0.008l0.081,0.011l0.083,0.012l0.081,0.015l0.082,0.017l0.082,0.019l0.081,0.021l0.081,0.024l0.081,0.025l0.08,0.027l0.079,0.03l0.079,0.032l0.077,0.033l0.077,0.036l0.075,0.037l0.075,0.04l0.073,0.041l0.072,0.042l0.07,0.045l0.07,0.046l0.067,0.047l0.067,0.049l0.064,0.05l0.063,0.051l0.062,0.053l0.06,0.054l0.058,0.054l0.06,0.058l0.057,0.06l0.054,0.058l0.054,0.059l0.052,0.061l0.051,0.063l0.05,0.065l0.048,0.066l0.047,0.067l0.046,0.069l0.045,0.07l0.042,0.072l0.041,0.073l0.039,0.074l0.038,0.075l0.036,0.077l0.033,0.077l0.032,0.078l0.029,0.08l0.028,0.08l0.025,0.08l0.024,0.082l0.021,0.081l0.019,0.081l0.017,0.083l0.015,0.082l0.013,0.082l0.01,0.082l0.009,0.082l0.007,0.082l0.004,0.081l0.003,0.081l0.001,0.082l-0.001,0.082l-0.003,0.082l-0.005,0.081l-0.006,0.081l-0.009,0.082l-0.011,0.082l-0.013,0.081l-0.015,0.082l-0.016,0.082l-0.02,0.082l-0.021,0.081l-0.023,0.081l-0.026,0.08l-0.027,0.08l-0.03,0.079l-0.031,0.078l-0.034,0.078l-0.035,0.076l-0.038,0.076l-0.039,0.074l-0.041,0.073l-0.043,0.072l-0.044,0.07l-0.046,0.069l-0.047,0.067l-0.049,0.066l-0.05,0.065l-0.051,0.063l-0.052,0.061l-0.054,0.06l-0.054,0.058l-0.055,0.057l-0.057,0.056l-0.059,0.055l-0.06,0.054l-0.062,0.053l-0.063,0.051l-0.065,0.051l-0.066,0.049l-0.068,0.048l-0.069,0.046l-0.071,0.044l-0.072,0.043l-0.073,0.042l-0.075,0.039l-0.075,0.038l-0.077,0.036l-0.078,0.033l-0.078,0.032l-0.08,0.03l-0.08,0.027l-0.081,0.026l-0.081,0.023l-0.081,0.021l-0.082,0.019l-0.082,0.017l-0.082,0.015l-0.082,0.013l-0.082,0.011l-0.082,0.008l-0.082,0.007l-0.081,0.004l-0.081,0.003l-0.08,0.001l-0.081,-0.001l-0.081,-0.003l-0.081,-0.004l-0.082,-0.007l-0.082,-0.009l-0.083,-0.01l-0.082,-0.013l-0.083,-0.015l-0.082,-0.017l-0.083,-0.02l-0.082,-0.022l-0.082,-0.023l-0.082,-0.027l-0.081,-0.028l-0.08,-0.031l-0.079,-0.032l-0.079,-0.035l-0.078,-0.037l-0.076,-0.039l-0.076,-0.041l-0.074,-0.043l-0.072,-0.044l-0.072,-0.047l-0.069,-0.048l-0.069,-0.049l-0.066,-0.051l-0.065,-0.053l-0.063,-0.053l-0.062,-0.055l-0.06,-0.056l-0.058,-0.057l-0.054,-0.056l-0.052,-0.055l-0.053,-0.059l-0.052,-0.061l-0.05,-0.062l-0.05,-0.063l-0.048,-0.065l-0.047,-0.066l-0.045,-0.068l-0.044,-0.069l-0.042,-0.07l-0.041,-0.071l-0.039,-0.073l-0.037,-0.074l-0.036,-0.075l-0.034,-0.076l-0.031,-0.076l-0.03,-0.077l-0.028,-0.079l-0.026,-0.078l-0.024,-0.079l-0.021,-0.08l-0.02,-0.08l-0.018,-0.08l-0.016,-0.079l-0.014,-0.081l-0.011,-0.08l-0.01,-0.08l-0.008,-0.08l-0.006,-0.079l-0.005,-0.079l-0.002,-0.079l-0.001,-0.078l0.001,-0.079l0.002,-0.079l0.005,-0.078l0.006,-0.08l0.008,-0.08l0.01,-0.08l0.012,-0.08l0.013,-0.08l0.016,-0.08l0.018,-0.079l0.02,-0.08l0.021,-0.08l0.024,-0.079l0.026,-0.078l0.028,-0.078l0.03,-0.077l0.031,-0.077l0.034,-0.075l0.035,-0.075l0.037,-0.074l0.039,-0.073l0.041,-0.071l0.042,-0.07l0.044,-0.069l0.045,-0.067l0.047,-0.067l0.048,-0.065l0.049,-0.063l0.051,-0.062l0.052,-0.06l0.052,-0.059l0.055,-0.058l0.056,-0.058l0.058,-0.057l0.06,-0.056l0.062,-0.055l0.063,-0.053l0.065,-0.052l0.067,-0.051l0.068,-0.049l0.069,-0.048l0.072,-0.046l0.072,-0.045l0.074,-0.042l0.075,-0.041l0.077,-0.039l0.077,-0.036l0.079,-0.035l0.079,-0.033l0.08,-0.03l0.081,-0.028l0.081,-0.026l0.082,-0.024l0.082,-0.022l0.082,-0.019l0.083,-0.017l0.082,-0.015l0.083,-0.013l0.082,-0.011l0.082,-0.008l0.082,-0.007l0.081,-0.005l0.081,-0.003l0.081,0l0.08,0Zm-0.115,2l-0.035,0.001l-0.035,0.002l-0.034,0.003l-0.033,0.004l-0.034,0.004l-0.033,0.005l-0.032,0.006l-0.033,0.007l-0.032,0.007l-0.031,0.009l-0.032,0.009l-0.031,0.01l-0.03,0.01l-0.03,0.012l-0.03,0.012l-0.03,0.013l-0.029,0.014l-0.029,0.015l-0.029,0.015l-0.028,0.016l-0.028,0.017l-0.027,0.018l-0.027,0.019l-0.027,0.019l-0.027,0.02l-0.026,0.021l-0.026,0.022l-0.025,0.023l-0.025,0.023l-0.025,0.024l-0.024,0.025l-0.024,0.026l-0.023,0.026l-0.023,0.026l-0.021,0.026l-0.021,0.027l-0.02,0.027l-0.019,0.028l-0.019,0.027l-0.018,0.028l-0.017,0.029l-0.016,0.028l-0.016,0.029l-0.014,0.029l-0.014,0.03l-0.014,0.03l-0.012,0.03l-0.012,0.03l-0.011,0.031l-0.01,0.031l-0.01,0.032l-0.008,0.031l-0.008,0.032l-0.007,0.033l-0.007,0.032l-0.006,0.033l-0.004,0.034l-0.005,0.033l-0.003,0.034l-0.003,0.034l-0.002,0.035l-0.001,0.035l0,0.035l0,0.035l0.001,0.035l0.002,0.034l0.003,0.035l0.003,0.034l0.005,0.033l0.004,0.034l0.006,0.033l0.007,0.032l0.007,0.033l0.008,0.032l0.008,0.031l0.01,0.032l0.01,0.031l0.011,0.031l0.012,0.03l0.012,0.03l0.014,0.03l0.014,0.03l0.014,0.029l0.016,0.029l0.016,0.028l0.017,0.029l0.018,0.028l0.019,0.027l0.019,0.028l0.02,0.027l0.021,0.026l0.021,0.027l0.023,0.026l0.023,0.026l0.024,0.025l0.024,0.025l0.025,0.024l0.025,0.024l0.025,0.023l0.026,0.021l0.026,0.022l0.027,0.02l0.027,0.019l0.027,0.019l0.027,0.018l0.028,0.017l0.028,0.016l0.029,0.016l0.029,0.014l0.029,0.014l0.029,0.013l0.03,0.013l0.031,0.011l0.03,0.011l0.031,0.01l0.031,0.009l0.032,0.008l0.032,0.008l0.032,0.007l0.033,0.006l0.033,0.005l0.033,0.004l0.034,0.004l0.034,0.002l0.035,0.002l0.035,0.002l0.035,0l0.035,0l0.035,-0.002l0.034,-0.002l0.034,-0.002l0.034,-0.004l0.034,-0.004l0.033,-0.005l0.033,-0.006l0.033,-0.007l0.032,-0.008l0.032,-0.008l0.032,-0.009l0.031,-0.01l0.031,-0.011l0.031,-0.011l0.03,-0.013l0.031,-0.013l0.029,-0.014l0.03,-0.014l0.029,-0.016l0.029,-0.016l0.029,-0.017l0.028,-0.018l0.028,-0.019l0.028,-0.019l0.027,-0.02l0.027,-0.022l0.027,-0.021l0.026,-0.023l0.027,-0.024l0.025,-0.024l0.026,-0.025l0.025,-0.025l0.024,-0.026l0.023,-0.026l0.023,-0.027l0.022,-0.026l0.021,-0.028l0.02,-0.027l0.019,-0.028l0.019,-0.028l0.017,-0.028l0.017,-0.028l0.017,-0.029l0.015,-0.03l0.015,-0.029l0.014,-0.03l0.013,-0.03l0.012,-0.031l0.012,-0.03l0.01,-0.031l0.01,-0.032l0.009,-0.032l0.009,-0.032l0.007,-0.032l0.007,-0.033l0.006,-0.033l0.005,-0.033l0.005,-0.034l0.003,-0.033l0.003,-0.035l0.002,-0.034l0.001,-0.035l0.001,-0.035l0,-0.035l-0.002,-0.035l-0.002,-0.035l-0.002,-0.034l-0.004,-0.034l-0.004,-0.033l-0.006,-0.034l-0.006,-0.033l-0.006,-0.032l-0.008,-0.032l-0.008,-0.032l-0.009,-0.032l-0.01,-0.032l-0.011,-0.031l-0.011,-0.03l-0.013,-0.031l-0.013,-0.03l-0.014,-0.03l-0.014,-0.029l-0.016,-0.03l-0.016,-0.028l-0.017,-0.029l-0.018,-0.028l-0.019,-0.028l-0.019,-0.028l-0.02,-0.028l-0.021,-0.027l-0.022,-0.026l-0.023,-0.027l-0.023,-0.026l-0.024,-0.026l-0.025,-0.026l-0.026,-0.025l-0.025,-0.024l-0.027,-0.023l-0.026,-0.023l-0.027,-0.022l-0.027,-0.021l-0.027,-0.02l-0.028,-0.019l-0.028,-0.019l-0.028,-0.018l-0.029,-0.017l-0.029,-0.016l-0.029,-0.015l-0.03,-0.015l-0.029,-0.014l-0.031,-0.013l-0.03,-0.012l-0.031,-0.012l-0.031,-0.01l-0.031,-0.01l-0.032,-0.009l-0.032,-0.009l-0.032,-0.007l-0.033,-0.007l-0.033,-0.006l-0.033,-0.005l-0.034,-0.004l-0.034,-0.004l-0.034,-0.003l-0.034,-0.002l-0.035,-0.001l-0.035,0l-0.035,0Zm13.076,0l-0.035,0.001l-0.035,0.002l-0.034,0.003l-0.034,0.004l-0.033,0.004l-0.034,0.005l-0.033,0.006l-0.032,0.007l-0.033,0.007l-0.032,0.009l-0.031,0.009l-0.032,0.01l-0.031,0.01l-0.031,0.012l-0.03,0.012l-0.03,0.013l-0.03,0.014l-0.03,0.015l-0.029,0.015l-0.029,0.016l-0.029,0.017l-0.028,0.018l-0.028,0.019l-0.028,0.019l-0.027,0.02l-0.027,0.021l-0.027,0.022l-0.026,0.023l-0.026,0.023l-0.026,0.024l-0.026,0.025l-0.025,0.026l-0.024,0.026l-0.023,0.026l-0.023,0.026l-0.021,0.027l-0.022,0.027l-0.02,0.028l-0.019,0.027l-0.019,0.028l-0.018,0.029l-0.017,0.028l-0.016,0.029l-0.015,0.029l-0.015,0.03l-0.014,0.03l-0.013,0.03l-0.012,0.03l-0.012,0.031l-0.01,0.031l-0.01,0.032l-0.009,0.031l-0.009,0.032l-0.007,0.033l-0.007,0.032l-0.006,0.033l-0.005,0.034l-0.005,0.033l-0.003,0.034l-0.003,0.034l-0.002,0.035l-0.001,0.035l0,0.035l0,0.035l0.001,0.035l0.002,0.034l0.003,0.035l0.003,0.034l0.005,0.033l0.005,0.034l0.006,0.033l0.007,0.032l0.007,0.033l0.009,0.032l0.009,0.031l0.01,0.032l0.01,0.031l0.012,0.031l0.012,0.03l0.013,0.03l0.014,0.03l0.015,0.03l0.015,0.029l0.016,0.029l0.017,0.028l0.018,0.029l0.019,0.028l0.019,0.027l0.02,0.028l0.022,0.027l0.021,0.026l0.023,0.027l0.023,0.026l0.024,0.026l0.025,0.025l0.026,0.025l0.026,0.024l0.026,0.024l0.026,0.023l0.027,0.021l0.027,0.022l0.027,0.02l0.028,0.019l0.028,0.019l0.028,0.018l0.029,0.017l0.029,0.016l0.029,0.016l0.03,0.014l0.03,0.014l0.03,0.013l0.03,0.013l0.031,0.011l0.031,0.011l0.032,0.01l0.031,0.009l0.032,0.008l0.033,0.008l0.032,0.007l0.033,0.006l0.034,0.005l0.033,0.004l0.034,0.004l0.034,0.002l0.035,0.002l0.035,0.002l0.035,0l0.035,0l0.035,-0.002l0.034,-0.002l0.034,-0.002l0.034,-0.004l0.033,-0.004l0.033,-0.005l0.032,-0.006l0.033,-0.007l0.032,-0.008l0.031,-0.008l0.032,-0.009l0.031,-0.01l0.03,-0.011l0.03,-0.011l0.03,-0.013l0.03,-0.013l0.029,-0.014l0.029,-0.014l0.029,-0.016l0.028,-0.016l0.028,-0.017l0.027,-0.018l0.027,-0.019l0.027,-0.019l0.027,-0.02l0.026,-0.022l0.026,-0.021l0.025,-0.023l0.025,-0.024l0.025,-0.024l0.025,-0.025l0.024,-0.025l0.023,-0.026l0.022,-0.026l0.022,-0.027l0.021,-0.026l0.02,-0.028l0.019,-0.027l0.018,-0.028l0.018,-0.028l0.017,-0.028l0.017,-0.028l0.015,-0.029l0.015,-0.03l0.014,-0.029l0.013,-0.03l0.013,-0.03l0.011,-0.031l0.011,-0.03l0.01,-0.031l0.01,-0.032l0.009,-0.032l0.007,-0.032l0.008,-0.032l0.006,-0.033l0.006,-0.033l0.005,-0.033l0.004,-0.034l0.003,-0.033l0.003,-0.035l0.002,-0.034l0.001,-0.035l0,-0.035l0,-0.035l-0.001,-0.035l-0.002,-0.035l-0.003,-0.034l-0.003,-0.034l-0.004,-0.033l-0.005,-0.034l-0.006,-0.033l-0.006,-0.032l-0.008,-0.032l-0.007,-0.032l-0.009,-0.032l-0.01,-0.032l-0.01,-0.031l-0.011,-0.03l-0.011,-0.031l-0.013,-0.03l-0.013,-0.03l-0.014,-0.029l-0.015,-0.03l-0.015,-0.028l-0.017,-0.029l-0.017,-0.028l-0.018,-0.028l-0.018,-0.028l-0.019,-0.028l-0.02,-0.027l-0.021,-0.026l-0.022,-0.027l-0.022,-0.026l-0.023,-0.026l-0.024,-0.026l-0.025,-0.025l-0.025,-0.024l-0.025,-0.023l-0.025,-0.023l-0.026,-0.022l-0.026,-0.021l-0.027,-0.02l-0.027,-0.019l-0.027,-0.019l-0.027,-0.018l-0.028,-0.017l-0.028,-0.016l-0.029,-0.015l-0.029,-0.015l-0.029,-0.014l-0.029,-0.013l-0.03,-0.012l-0.031,-0.012l-0.03,-0.01l-0.031,-0.01l-0.031,-0.009l-0.032,-0.009l-0.032,-0.007l-0.032,-0.007l-0.033,-0.006l-0.033,-0.005l-0.033,-0.004l-0.034,-0.004l-0.034,-0.003l-0.034,-0.002l-0.035,-0.001l-0.035,0l-0.035,0Z" style="fill:#fff;"/><defs><linearGradient id="_Linear1" x1="0" y1="0" x2="1" y2="0" gradientUnits="userSpaceOnUse" gradientTransform="matrix(-67.6594,-67.6594,-63.8985,63.8985,83.2429,80.2852)"><stop offset="0" style="stop-color:#8536d6;stop-opacity:0.2"/><stop offset="1" style="stop-color:#3f36d6;stop-opacity:0.2"/></linearGradient><linearGradient id="_Linear2" x1="0" y1="0" x2="1" y2="0" gradientUnits="userSpaceOnUse" gradientTransform="matrix(-85.2258,-18.1153,-17.1083,80.4884,92.0261,55.5131)"><stop offset="0" style="stop-color:#8536d6;stop-opacity:0.7"/><stop offset="1" style="stop-color:#3f36d6;stop-opacity:0.7"/></linearGradient></defs></svg>